<?xml version="1.0" standalone="no"?>
<!DOCTYPE svg PUBLIC "-//W3C//DTD SVG 20010904//EN"
 "http://www.w3.org/TR/2001/REC-SVG-20010904/DTD/svg10.dtd">
<svg version="1.0" xmlns="http://www.w3.org/2000/svg"
 width="228.000000pt" height="228.000000pt" viewBox="0 0 228.000000 228.000000"
 preserveAspectRatio="xMidYMid meet">

<g transform="translate(0.000000,228.000000) scale(0.100000,-0.100000)"
fill="#000000" stroke="none">
<path d="M1050 2247 c-19 -13 -164 -101 -321 -195 l-287 -172 -100 0 c-126 0
-190 -13 -241 -51 -61 -44 -82 -94 -93 -223 -5 -61 -6 -154 -2 -206 4 -52 8
-284 9 -515 2 -446 8 -516 56 -670 37 -122 99 -162 283 -184 112 -14 1229 -23
1406 -12 179 11 238 29 301 91 59 57 71 98 74 255 1 66 3 123 4 128 0 4 16 7
34 7 22 0 41 8 54 22 39 43 48 93 48 273 0 199 -8 224 -80 256 l-43 19 0 118
c-1 119 -15 186 -47 223 -13 13 -15 46 -13 180 3 150 1 167 -18 199 -33 57
-91 82 -203 88 l-96 5 -55 86 c-30 47 -76 122 -102 166 -27 44 -59 92 -72 108
-41 46 -59 41 -268 -83 l-37 -21 -19 38 c-47 91 -105 115 -172 70z m465 -58
c20 -18 58 -68 84 -113 26 -45 98 -162 160 -261 l112 -180 -103 -3 -103 -3
-43 48 c-24 26 -62 76 -85 111 -23 34 -47 62 -55 62 -7 0 -27 -7 -45 -17 -18
-9 -57 -17 -89 -17 -49 -1 -63 4 -103 32 -25 17 -47 32 -49 32 -2 0 -46 -27
-98 -59 -52 -33 -147 -89 -212 -125 l-119 -67 -130 3 -131 3 105 64 c57 36
255 155 439 266 184 111 353 214 374 228 21 15 43 27 47 27 5 0 24 -14 44 -31z
m-365 -4 c8 -8 23 -27 32 -42 l17 -29 -107 -64 c-59 -35 -238 -144 -398 -242
l-291 -178 -104 6 c-57 3 -110 8 -118 10 -20 6 -8 14 424 274 204 122 388 235
410 250 22 15 47 30 55 33 20 8 62 -1 80 -18z m-800 -359 c0 -11 -110 -66
-132 -66 -13 0 -47 -6 -76 -14 -29 -7 -52 -10 -52 -6 0 15 61 63 96 75 35 13
164 21 164 11z m1632 -22 c59 -34 71 -76 63 -214 -7 -106 -9 -119 -24 -110
-11 6 -17 24 -18 57 -3 88 -18 180 -32 197 -9 11 -29 16 -62 16 -48 0 -58 7
-94 69 -13 22 124 9 167 -15z m-597 -31 c28 3 59 8 70 12 16 5 29 -6 65 -56
25 -34 51 -70 59 -80 13 -18 4 -19 -345 -19 l-359 1 49 27 c26 15 96 57 155
93 l106 65 75 -24 c54 -17 89 -22 125 -19z m-1255 -83 c-28 -22 -40 -25 -40
-10 0 6 10 15 23 20 37 15 44 11 17 -10z m1810 -26 c0 -19 -2 -34 -4 -34 -5 0
-46 65 -46 72 0 3 11 3 25 0 21 -4 25 -10 25 -38z m-920 -81 c486 -3 894 -9
907 -14 17 -6 23 -16 23 -40 0 -26 -3 -30 -17 -24 -42 16 -467 25 -1093 23
-717 -2 -694 -4 -747 45 -32 29 -29 37 10 25 21 -7 326 -12 917 -15z m-495
-105 c220 -4 533 -5 695 -2 325 7 664 -8 746 -31 100 -29 144 -110 144 -263 0
-107 -3 -112 -64 -112 l-51 0 0 57 c0 51 -2 58 -20 58 -16 0 -21 -8 -23 -43
-2 -24 2 -50 8 -57 16 -19 -7 -23 -150 -28 -140 -4 -186 -24 -237 -101 -86
-127 -85 -289 2 -372 60 -58 116 -75 265 -81 92 -4 130 -9 143 -21 15 -14 19
-13 35 1 10 10 29 17 43 17 l24 0 -3 -102 c-6 -191 -26 -249 -102 -288 -82
-42 -148 -45 -875 -43 -810 3 -861 7 -937 80 -33 32 -34 39 -8 46 32 8 23 34
-17 54 -36 17 -39 21 -57 103 -16 75 -19 136 -21 520 -1 240 -5 445 -9 458 -6
19 -4 22 18 22 35 0 35 33 1 48 -23 10 -25 17 -25 71 l0 60 38 -22 c36 -21 49
-22 437 -29z m1644 -473 c53 -27 65 -72 58 -219 -7 -144 -17 -194 -47 -221
-17 -15 -43 -18 -227 -18 -222 -2 -254 4 -324 54 -116 82 -79 315 61 390 51
27 433 39 479 14z"/>
<path d="M1447 2122 c-22 -24 -22 -61 0 -92 38 -56 82 -66 109 -25 21 32 12
69 -26 106 -33 33 -60 37 -83 11z m73 -83 c0 -16 -19 -9 -30 10 -17 33 -11 48
10 22 11 -13 20 -27 20 -32z"/>
<path d="M1324 2045 c-24 -37 4 -97 59 -127 30 -16 67 15 67 56 0 77 -89 127
-126 71z m70 -48 c15 -24 -2 -34 -19 -11 -8 10 -15 23 -15 27 0 13 22 3 34
-16z"/>
<path d="M1237 1987 c-7 -18 61 -127 79 -127 30 0 26 32 -10 85 -35 54 -59 68
-69 42z"/>
<path d="M187 1383 c-4 -3 -7 -15 -7 -25 0 -17 7 -19 58 -16 50 3 57 6 60 26
3 20 0 22 -51 22 -29 0 -57 -3 -60 -7z"/>
<path d="M397 1383 c-4 -3 -7 -15 -7 -26 0 -18 6 -19 60 -15 61 4 88 17 76 37
-8 12 -118 15 -129 4z"/>
<path d="M620 1375 c-20 -24 0 -37 51 -33 36 2 44 7 44 23 0 16 -8 21 -41 23
-28 2 -45 -2 -54 -13z"/>
<path d="M830 1375 c-21 -25 1 -37 61 -33 46 3 54 6 54 23 0 17 -8 20 -51 23
-37 2 -54 -1 -64 -13z"/>
<path d="M1048 1384 c-5 -4 -8 -15 -8 -25 0 -14 11 -18 56 -21 59 -3 88 12 66
34 -13 13 -104 23 -114 12z"/>
<path d="M1273 1379 c-23 -23 -2 -39 52 -39 57 0 75 11 55 35 -15 18 -91 20
-107 4z"/>
<path d="M1467 1376 c-9 -24 15 -36 73 -36 62 0 86 11 77 34 -8 22 -142 23
-150 2z"/>
<path d="M1714 1375 c-11 -26 10 -36 67 -33 46 3 54 6 54 23 0 17 -8 20 -58
23 -45 2 -59 0 -63 -13z"/>
<path d="M1914 1346 c-7 -19 38 -87 56 -83 24 4 23 34 -1 67 -24 32 -46 39
-55 16z"/>
<path d="M1975 418 c-3 -7 -6 -29 -7 -48 -3 -29 0 -35 17 -35 21 0 42 52 32
79 -8 19 -36 21 -42 4z"/>
<path d="M1956 255 c-3 -8 -16 -17 -30 -21 -29 -7 -40 -28 -22 -43 26 -22 96
22 96 60 0 23 -35 26 -44 4z"/>
<path d="M952 209 c-37 -14 -20 -34 33 -37 51 -3 73 11 53 35 -12 15 -52 16
-86 2z"/>
<path d="M1770 211 c-26 -4 -35 -11 -35 -26 0 -18 6 -20 54 -18 59 3 77 13 68
37 -7 16 -26 18 -87 7z"/>
<path d="M275 200 c-13 -22 17 -41 59 -38 33 2 41 7 41 23 0 17 -8 20 -47 23
-26 2 -49 -2 -53 -8z"/>
<path d="M454 199 c-14 -23 28 -40 91 -37 52 3 60 6 60 23 0 18 -8 20 -72 23
-47 2 -74 -1 -79 -9z"/>
<path d="M700 191 c0 -22 19 -31 66 -31 42 0 74 15 74 35 0 12 -15 15 -70 15
-62 0 -70 -2 -70 -19z"/>
<path d="M1154 196 c-10 -27 6 -36 62 -36 52 0 55 2 52 23 -3 19 -10 22 -56
25 -39 2 -54 -1 -58 -12z"/>
<path d="M1338 198 c-11 -29 4 -38 65 -38 69 0 93 10 84 34 -5 13 -21 16 -76
16 -46 0 -70 -4 -73 -12z"/>
<path d="M1542 188 c3 -21 8 -23 68 -23 60 0 65 2 68 23 3 21 0 22 -68 22 -68
0 -71 -1 -68 -22z"/>
<path d="M2048 984 c-5 -4 -8 -16 -8 -26 0 -14 8 -18 35 -18 41 0 75 -29 75
-64 0 -38 10 -56 32 -56 19 0 20 4 15 57 -7 71 -34 100 -97 109 -25 3 -48 2
-52 -2z"/>
<path d="M1720 908 c-61 -31 -90 -77 -90 -141 0 -95 65 -154 162 -145 36 4 57
13 80 34 135 127 10 335 -152 252z m131 -57 c41 -42 41 -97 -2 -146 -27 -30
-37 -35 -75 -35 -85 0 -120 70 -78 152 31 61 109 75 155 29z"/>
<path d="M2150 760 c0 -13 7 -20 20 -20 13 0 20 7 20 20 0 13 -7 20 -20 20
-13 0 -20 -7 -20 -20z"/>
</g>
</svg>
