<?xml version="1.0" standalone="no"?>
<!DOCTYPE svg PUBLIC "-//W3C//DTD SVG 20010904//EN"
 "http://www.w3.org/TR/2001/REC-SVG-20010904/DTD/svg10.dtd">
<svg version="1.0" xmlns="http://www.w3.org/2000/svg"
 width="245.000000pt" height="246.000000pt" viewBox="0 0 245.000000 246.000000"
 preserveAspectRatio="xMidYMid meet">

<g transform="translate(0.000000,246.000000) scale(0.100000,-0.100000)"
fill="#000000" stroke="none">
<path d="M1333 2435 c-3 -9 -2 -261 2 -560 5 -394 11 -545 19 -545 117 1 856
-11 952 -16 73 -3 134 -2 137 3 7 12 -21 194 -44 285 -65 258 -136 386 -306
549 -155 150 -353 244 -598 284 -116 19 -154 19 -162 0z m87 -43 c0 -5 -9 -17
-20 -27 -20 -18 -20 -17 -20 8 0 20 5 27 20 27 11 0 20 -4 20 -8z m130 -71
c-21 -25 -68 -77 -104 -116 l-65 -70 0 65 c-1 60 2 69 35 110 56 72 68 78 125
67 l49 -10 -40 -46z m152 11 l37 -17 -112 -120 c-62 -67 -142 -154 -179 -195
l-67 -75 -1 65 0 65 131 148 c72 81 136 147 142 147 7 0 29 -8 49 -18z m138
-62 c22 -11 40 -25 40 -31 0 -5 -80 -90 -178 -187 -98 -97 -207 -210 -242
-250 -70 -80 -78 -80 -79 2 -1 34 8 49 71 123 108 128 328 363 339 363 5 0 28
-9 49 -20z m156 -102 c14 -15 -12 -44 -293 -325 l-308 -308 -3 58 -3 57 132
146 c73 80 180 191 239 247 59 56 120 119 135 139 29 37 29 37 58 20 15 -9 35
-24 43 -34z m21 -241 c-119 -128 -532 -522 -571 -546 -37 -22 -56 -8 -56 40 0
40 3 44 332 370 l332 329 38 -37 37 -36 -112 -120z m181 26 l32 -48 -62 -54
c-35 -31 -160 -151 -280 -268 l-216 -213 -44 1 c-23 1 -56 4 -71 8 -28 6 -21
13 177 199 113 106 253 245 312 308 59 63 109 114 113 114 3 0 21 -21 39 -47z
m75 -138 c9 -20 17 -43 17 -52 0 -9 -86 -101 -192 -205 l-192 -188 -80 0 -81
0 165 166 c160 161 325 314 339 314 4 0 15 -16 24 -35z m61 -170 l17 -56 -76
-84 c-116 -127 -129 -135 -221 -135 l-78 0 165 164 c90 90 167 164 170 165 3
0 13 -24 23 -54z m56 -198 c17 -85 16 -87 -90 -87 -49 0 -90 2 -90 3 0 2 35
41 77 85 51 54 80 78 84 69 4 -6 12 -38 19 -70z"/>
<path d="M959 2425 c-166 -31 -342 -116 -483 -234 -61 -50 -202 -204 -272
-296 -53 -69 -85 -131 -119 -233 -59 -175 -70 -247 -69 -442 1 -154 4 -186 26
-271 79 -294 248 -535 504 -717 327 -234 698 -280 1130 -141 433 138 622 360
730 853 31 140 27 168 -23 181 -15 4 -295 9 -620 12 -441 4 -593 8 -593 16 2
96 -13 1013 -18 1127 l-7 155 -55 2 c-30 1 -89 -5 -131 -12z m146 -217 c4
-101 10 -392 13 -648 l7 -465 620 -6 c341 -3 621 -6 623 -7 7 -5 -1 -79 -18
-159 -59 -283 -186 -501 -364 -627 -186 -133 -466 -222 -726 -233 -155 -6
-240 7 -388 58 -521 184 -835 637 -809 1167 6 133 23 223 69 359 38 114 90
197 221 349 157 184 279 277 438 335 83 30 205 56 270 58 l37 1 7 -182z"/>
<path d="M491 1901 c-17 -11 -7 -41 13 -41 22 0 30 20 15 36 -9 8 -19 10 -28
5z"/>
<path d="M375 1785 c-60 -74 -104 -155 -130 -240 -30 -96 -47 -231 -30 -245
22 -18 35 8 45 86 19 151 63 259 148 361 27 32 47 64 44 71 -8 25 -41 11 -77
-33z"/>
</g>
</svg>
